<svg width="26" height="31" viewBox="0 0 26 31" fill="none" xmlns="http://www.w3.org/2000/svg">
<path d="M25.1362 23.6174C24.6978 24.6394 24.1561 25.614 23.5196 26.526C22.6694 27.7404 21.9711 28.5795 21.436 29.0466C20.6047 29.8098 19.7117 30.2025 18.757 30.2246C18.073 30.2246 17.2465 30.0299 16.2838 29.634C15.318 29.2398 14.4313 29.0466 13.619 29.0466C12.7688 29.0466 11.8568 29.2398 10.8799 29.634C9.90454 30.0299 9.11604 30.2373 8.51279 30.2563C7.59921 30.2959 6.68562 29.8937 5.77521 29.0466C5.19412 28.54 4.46737 27.6691 3.59496 26.4373C2.66079 25.1247 1.89287 23.5968 1.29121 21.8599C0.646792 19.9805 0.323792 18.1628 0.323792 16.4021C0.323792 14.3865 0.759209 12.6465 1.63163 11.1898C2.29148 10.0458 3.23483 9.09098 4.37079 8.41737C5.49095 7.74551 6.76968 7.38375 8.07579 7.36921C8.80412 7.36921 9.75887 7.59404 10.9416 8.03737C12.1244 8.48071 12.8844 8.70554 13.2153 8.70554C13.4655 8.70554 14.3062 8.44112 15.7375 7.91704C17.0881 7.43096 18.2281 7.22987 19.1623 7.30904C21.6956 7.51329 23.5972 8.51079 24.8623 10.3095C22.5981 11.6822 21.4787 13.6028 21.5009 16.068C21.5199 17.9886 22.2181 19.5862 23.5861 20.8545C24.1909 21.4332 24.8966 21.8963 25.6682 22.2209C25.5004 22.707 25.323 23.1709 25.1362 23.6174ZM19.3301 0.768289C19.3301 2.27246 18.7791 3.67846 17.685 4.97837C16.3614 6.52371 14.7622 7.41829 13.0285 7.27737C13.0058 7.08823 12.9947 6.89787 12.9952 6.70737C12.9952 5.26179 13.6222 3.71646 14.7416 2.45137C15.299 1.81171 16.0083 1.27812 16.868 0.853789C17.7262 0.435789 18.5369 0.204622 19.3 0.165039C19.3206 0.367706 19.3301 0.568789 19.3301 0.768289Z" fill="black"/>
</svg>
