<svg width="45" height="45" viewBox="0 0 45 45" fill="none" xmlns="http://www.w3.org/2000/svg">
<circle cx="22.5" cy="22.5" r="22.5" fill="#CED3FF" fill-opacity="0.2"/>
<path d="M11.75 13V19.25H14.25V14.25H19.25V11.75H13C12.6685 11.75 12.3505 11.8817 12.1161 12.1161C11.8817 12.3505 11.75 12.6685 11.75 13ZM34.25 19.25V13C34.25 12.6685 34.1183 12.3505 33.8839 12.1161C33.6495 11.8817 33.3315 11.75 33 11.75H26.75V14.25H31.75V19.25H34.25ZM31.75 31.75H26.75V34.25H33C33.3315 34.25 33.6495 34.1183 33.8839 33.8839C34.1183 33.6495 34.25 33.3315 34.25 33V26.75H31.75V31.75ZM19.25 34.25V31.75H14.25V26.75H11.75V33C11.75 33.3315 11.8817 33.6495 12.1161 33.8839C12.3505 34.1183 12.6685 34.25 13 34.25H19.25ZM10.5 21.75H35.5V24.25H10.5V21.75Z" fill="#CED3FF"/>
</svg>
