<svg width="31" height="35" viewBox="0 0 31 35" fill="none" xmlns="http://www.w3.org/2000/svg">
<path d="M21.75 17C21.855 17 21.9575 17.005 22.06 17.0125L21.72 17.815L21.6 18.1475L21.58 18.21C21.45 18.63 21.3825 19.065 21.375 19.5H4.25C3.91848 19.5 3.60054 19.6317 3.36612 19.8661C3.1317 20.1005 3 20.4185 3 20.75V22C3 25.595 6.58 29.5 13 29.5C13.7725 29.5 14.5025 29.4425 15.1925 29.3375C14.8183 30.1399 14.6771 31.0313 14.785 31.91C14.192 31.9708 13.5962 32.0008 13 32C5.15 32 0.5 26.9275 0.5 22V20.75C0.5 19.7554 0.895088 18.8016 1.59835 18.0983C2.30161 17.3951 3.25544 17 4.25 17H21.75Z" fill="#31326C"/>
<path d="M20.9977 27.6103L22.8477 28.2253L23.1502 28.3253C24.0102 27.6753 24.7252 26.8578 25.3002 25.8728C25.7927 25.0278 26.1127 24.1703 26.2652 23.3003L26.3277 22.8653L24.5352 21.1653C24.245 20.8836 24.0386 20.5271 23.9389 20.1352C23.8391 19.7433 23.85 19.3314 23.9702 18.9453L24.0452 18.7328L24.8602 16.8153C25.028 16.3904 25.3389 16.0375 25.7392 15.8175C26.1395 15.5975 26.6041 15.5242 27.0527 15.6103L27.2452 15.6603L28.2627 15.9853C29.2727 16.3103 30.0477 17.1753 30.2977 18.2603C30.8902 20.8453 30.1777 23.9903 28.1602 27.6953C26.1452 31.3953 23.9352 33.6228 21.5327 34.3703C21.0743 34.5128 20.5873 34.5371 20.117 34.4409C19.6467 34.3448 19.2084 34.1313 18.8427 33.8203L18.6427 33.6353L17.8702 32.8603C17.5444 32.525 17.3338 32.0947 17.2691 31.6317C17.2044 31.1687 17.2888 30.6971 17.5102 30.2853L17.6252 30.1003L18.7927 28.3853C18.9843 28.0991 19.2478 27.8684 19.5567 27.7161C19.8656 27.5639 20.2091 27.4955 20.5527 27.5178C20.6334 27.5243 20.7135 27.536 20.7927 27.5528L20.9977 27.6103Z" fill="#E5AB3D"/>
<path d="M13 0.75C14.8234 0.75 16.572 1.47433 17.8614 2.76364C19.1507 4.05295 19.875 5.80164 19.875 7.625C19.875 9.44836 19.1507 11.197 17.8614 12.4864C16.572 13.7757 14.8234 14.5 13 14.5C11.1766 14.5 9.42795 13.7757 8.13864 12.4864C6.84933 11.197 6.125 9.44836 6.125 7.625C6.125 5.80164 6.84933 4.05295 8.13864 2.76364C9.42795 1.47433 11.1766 0.75 13 0.75ZM13 3.25C11.8397 3.25 10.7269 3.71094 9.90641 4.53141C9.08594 5.35188 8.625 6.46468 8.625 7.625C8.625 8.78532 9.08594 9.89812 9.90641 10.7186C10.7269 11.5391 11.8397 12 13 12C14.1603 12 15.2731 11.5391 16.0936 10.7186C16.9141 9.89812 17.375 8.78532 17.375 7.625C17.375 6.46468 16.9141 5.35188 16.0936 4.53141C15.2731 3.71094 14.1603 3.25 13 3.25Z" fill="#31326C"/>
</svg>
