<svg width="35" height="35" viewBox="0 0 35 35" fill="none" xmlns="http://www.w3.org/2000/svg">
<circle cx="17.5" cy="17.5" r="16.5" stroke="#31326C"/>
<path d="M23.75 9.75H13.25C11.7625 9.75 10.625 10.9417 10.625 12.5V23.5C10.625 25.0583 11.7625 26.25 13.25 26.25H23.75C25.2375 26.25 26.375 25.0583 26.375 23.5V12.5C26.375 10.9417 25.2375 9.75 23.75 9.75ZM18.5 15.25C19.9875 15.25 21.125 16.4417 21.125 18C21.125 19.5583 19.9875 20.75 18.5 20.75C17.0125 20.75 15.875 19.5583 15.875 18C15.875 16.4417 17.0125 15.25 18.5 15.25ZM21.825 13.4167C21.825 12.775 22.35 12.3167 22.875 12.3167C23.4 12.3167 23.925 12.8667 23.925 13.4167C23.925 13.9667 23.4875 14.5167 22.875 14.5167C22.2625 14.5167 21.825 14.0583 21.825 13.4167V13.4167ZM23.75 24.4167H13.25C12.725 24.4167 12.375 24.05 12.375 23.5V18H14.125C14.125 20.5667 16.05 22.5833 18.5 22.5833C20.95 22.5833 22.875 20.5667 22.875 18H24.625V23.5C24.625 24.05 24.275 24.4167 23.75 24.4167Z" fill="#31326C"/>
</svg>
