<svg width="35" height="35" viewBox="0 0 35 35" fill="none" xmlns="http://www.w3.org/2000/svg">
<circle cx="17.5" cy="17.5" r="16.5" stroke="#31326C"/>
<path d="M24.9968 14.3306C25.0087 14.491 25.0088 14.6505 25.0088 14.81C25.0088 19.6912 21.2935 25.3159 14.5038 25.3159C12.4119 25.3159 10.4686 24.71 8.83325 23.6577C9.13025 23.6916 9.41625 23.7035 9.72517 23.7035C11.3871 23.7075 13.0019 23.1518 14.3094 22.1259C13.5389 22.112 12.7919 21.8578 12.1729 21.3988C11.5538 20.9398 11.0936 20.2989 10.8563 19.5657C11.0846 19.5996 11.3138 19.6225 11.5539 19.6225C11.8848 19.6225 12.2176 19.5767 12.5265 19.4969C11.6903 19.3281 10.9384 18.8748 10.3986 18.2142C9.85879 17.5536 9.56447 16.7264 9.56567 15.8733V15.8275C10.0579 16.1016 10.629 16.273 11.234 16.2959C10.7272 15.9591 10.3116 15.5021 10.0243 14.9656C9.73705 14.4292 9.58704 13.8299 9.58767 13.2214C9.58767 12.5357 9.77009 11.9069 10.09 11.3587C11.0178 12.5 12.175 13.4337 13.4866 14.0993C14.7982 14.7649 16.2349 15.1475 17.7038 15.2225C17.647 14.9475 17.6122 14.6624 17.6122 14.3764C17.6119 13.8915 17.7073 13.4112 17.8927 12.9631C18.0782 12.5151 18.3502 12.1079 18.6931 11.765C19.036 11.4221 19.4431 11.1501 19.8912 10.9647C20.3393 10.7792 20.8195 10.6838 21.3045 10.6841C22.3678 10.6841 23.3276 11.1296 24.0023 11.8501C24.8289 11.6902 25.6216 11.3885 26.3453 10.9582C26.0697 11.8114 25.4925 12.5349 24.7218 12.9932C25.455 12.9095 26.1715 12.7167 26.8476 12.4212C26.3426 13.1573 25.7169 13.8029 24.9968 14.3306V14.3306Z" fill="#31326C"/>
</svg>
