<svg width="33" height="35" viewBox="0 0 33 35" fill="none" xmlns="http://www.w3.org/2000/svg">
<path d="M21.75 17C21.855 17 21.9575 17.005 22.06 17.0125L21.72 17.815L21.6 18.1475L21.58 18.21C21.45 18.63 21.3825 19.065 21.375 19.5H4.25C3.91848 19.5 3.60054 19.6317 3.36612 19.8661C3.1317 20.1005 3 20.4185 3 20.75V22C3 25.595 6.58 29.5 13 29.5C13.7725 29.5 14.5025 29.4425 15.1925 29.3375C14.8183 30.1399 14.6771 31.0313 14.785 31.91C14.192 31.9708 13.5962 32.0008 13 32C5.15 32 0.5 26.9275 0.5 22V20.75C0.5 19.7554 0.895088 18.8016 1.59835 18.0983C2.30161 17.3951 3.25544 17 4.25 17H21.75Z" fill="white"/>
<path fill-rule="evenodd" clip-rule="evenodd" d="M19.678 30.3676C19.7818 30.4699 19.8613 30.5935 19.9109 30.7295C19.9605 30.8655 19.979 31.0106 19.965 31.1544C19.8947 31.82 19.7615 32.4777 19.567 33.119C20.962 32.8017 21.814 32.4343 22.201 32.2418C22.4205 32.1326 22.6733 32.1067 22.911 32.1691C23.5924 32.3475 24.2948 32.4374 25 32.4363C28.996 32.4363 32 29.679 32 26.5426C32 23.4072 28.996 20.6489 25 20.6489C21.004 20.6489 18 23.4072 18 26.5426C18 27.9846 18.617 29.3225 19.678 30.3676ZM19.185 34.2034C18.9481 34.2495 18.7104 34.2918 18.472 34.3301C18.272 34.3615 18.12 34.1572 18.199 33.9745C18.2878 33.7688 18.3692 33.5601 18.443 33.3488L18.446 33.339C18.694 32.6317 18.896 31.8184 18.97 31.0611C17.743 29.8529 17 28.2714 17 26.5426C17 22.7451 20.582 19.6667 25 19.6667C29.418 19.6667 33 22.7451 33 26.5426C33 30.3401 29.418 33.4186 25 33.4186C24.2077 33.4196 23.4186 33.3185 22.653 33.118C22.133 33.3763 21.014 33.8468 19.185 34.2034Z" fill="#E5AB3D" stroke="#E5AB3D" stroke-width="0.5"/>
<path d="M13 0.75C14.8234 0.75 16.572 1.47433 17.8614 2.76364C19.1507 4.05295 19.875 5.80164 19.875 7.625C19.875 9.44836 19.1507 11.197 17.8614 12.4864C16.572 13.7757 14.8234 14.5 13 14.5C11.1766 14.5 9.42795 13.7757 8.13864 12.4864C6.84933 11.197 6.125 9.44836 6.125 7.625C6.125 5.80164 6.84933 4.05295 8.13864 2.76364C9.42795 1.47433 11.1766 0.75 13 0.75ZM13 3.25C11.8397 3.25 10.7269 3.71094 9.90641 4.53141C9.08594 5.35188 8.625 6.46468 8.625 7.625C8.625 8.78532 9.08594 9.89812 9.90641 10.7186C10.7269 11.5391 11.8397 12 13 12C14.1603 12 15.2731 11.5391 16.0936 10.7186C16.9141 9.89812 17.375 8.78532 17.375 7.625C17.375 6.46468 16.9141 5.35188 16.0936 4.53141C15.2731 3.71094 14.1603 3.25 13 3.25Z" fill="white"/>
</svg>
