<svg width="26" height="30" viewBox="0 0 26 30" fill="none" xmlns="http://www.w3.org/2000/svg">
<path d="M14.9417 14.1506L18.7604 10.3169C11.7855 6.17034 1.47906 0.0869991 0.896596 0L0.849976 0.00479995L14.9417 14.1506Z" fill="#08B059"/>
<path d="M0.00478161 0.853271L0 0.899771V29.0995L0.00448276 29.1442L14.0962 14.9987L0.00478161 0.853271Z" fill="#1BB899"/>
<path d="M14.9434 15.8494L0.852295 29.9948L0.896525 29.9999C1.48167 29.9063 11.7863 23.826 18.7603 19.6812L14.9434 15.8494Z" fill="#F04F3E"/>
<path d="M25.1034 14.0999C25.1034 14.0999 22.9003 12.7805 19.8242 10.95L15.7888 15.0011L19.8224 19.0502C22.8994 17.2193 25.1034 15.8999 25.1034 15.8999C25.5836 15.6467 25.9999 15.497 25.9999 14.9999C25.9999 14.5031 25.5266 14.3324 25.1034 14.0999Z" fill="#F99C1C"/>
</svg>
