<svg width="45" height="45" viewBox="0 0 45 45" fill="none" xmlns="http://www.w3.org/2000/svg">
<circle cx="22.5" cy="22.5" r="22.5" fill="#CED3FF" fill-opacity="0.2"/>
<path d="M34.9294 18.0733C34.9159 17.0634 34.7269 16.0636 34.3707 15.1186C34.0618 14.3215 33.5901 13.5975 32.9856 12.9931C32.3811 12.3886 31.6572 11.9168 30.86 11.6079C29.9271 11.2578 28.9416 11.0684 27.9454 11.0479C26.6627 10.9906 26.256 10.9746 23 10.9746C19.744 10.9746 19.3267 10.9746 18.0534 11.0479C17.0576 11.0685 16.0725 11.2579 15.14 11.6079C14.3428 11.9166 13.6187 12.3883 13.0142 12.9928C12.4097 13.5973 11.938 14.3214 11.6294 15.1186C11.2785 16.0508 11.0895 17.0361 11.0707 18.0319C11.0134 19.3159 10.996 19.7226 10.996 22.9786C10.996 26.2346 10.996 26.6506 11.0707 27.9253C11.0907 28.9226 11.2787 29.9066 11.6294 30.8413C11.9385 31.6383 12.4106 32.3621 13.0153 32.9663C13.62 33.5706 14.3441 34.042 15.1414 34.3506C16.0713 34.7149 17.0565 34.9178 18.0547 34.9506C19.3387 35.0079 19.7454 35.0253 23.0014 35.0253C26.2574 35.0253 26.6747 35.0253 27.948 34.9506C28.9442 34.931 29.9298 34.7421 30.8627 34.3919C31.6596 34.0827 32.3834 33.6108 32.9878 33.0064C33.5923 32.402 34.0641 31.6782 34.3734 30.8813C34.724 29.9479 34.912 28.9639 34.932 27.9653C34.9894 26.6826 35.0067 26.2759 35.0067 23.0186C35.004 19.7626 35.004 19.3493 34.9294 18.0733V18.0733ZM22.992 29.1359C19.5867 29.1359 16.828 26.3773 16.828 22.9719C16.828 19.5666 19.5867 16.8079 22.992 16.8079C24.6268 16.8079 26.1947 17.4574 27.3506 18.6133C28.5066 19.7693 29.156 21.3371 29.156 22.9719C29.156 24.6067 28.5066 26.1746 27.3506 27.3306C26.1947 28.4865 24.6268 29.1359 22.992 29.1359V29.1359ZM29.4014 18.0173C28.6054 18.0173 27.964 17.3746 27.964 16.5799C27.964 16.3913 28.0012 16.2045 28.0734 16.0302C28.1456 15.8559 28.2514 15.6975 28.3848 15.5641C28.5182 15.4307 28.6766 15.3248 28.8509 15.2526C29.0252 15.1804 29.212 15.1433 29.4007 15.1433C29.5894 15.1433 29.7762 15.1804 29.9505 15.2526C30.1248 15.3248 30.2832 15.4307 30.4166 15.5641C30.55 15.6975 30.6558 15.8559 30.728 16.0302C30.8002 16.2045 30.8374 16.3913 30.8374 16.5799C30.8374 17.3746 30.1947 18.0173 29.4014 18.0173Z" fill="#31326C"/>
<path d="M22.992 26.976C25.2033 26.976 26.996 25.1834 26.996 22.972C26.996 20.7607 25.2033 18.968 22.992 18.968C20.7806 18.968 18.988 20.7607 18.988 22.972C18.988 25.1834 20.7806 26.976 22.992 26.976Z" fill="#31326C"/>
</svg>
