<svg width="45" height="45" viewBox="0 0 45 45" fill="none" xmlns="http://www.w3.org/2000/svg">
<circle cx="22.5" cy="22.5" r="22.5" fill="#E5AB3D" fill-opacity="0.2"/>
<path d="M21.9053 11.8652L21.0334 16.738H25.2039L26.2275 11.0277C26.3414 10.3805 27.2891 10 28.2372 10C29.3744 10 30.4738 10.5328 30.5119 11.8652L29.6019 16.738H32.5594C33.2795 16.738 34 17.4993 34 18.5652C34 19.6312 33.3176 20.3925 32.5971 20.3925H28.9573L28.0851 25.0747H31.0426C31.763 25.0747 32.5213 25.8739 32.5213 26.902C32.5213 28.0058 31.763 28.7671 31.0803 28.7671H27.4027L26.3033 34.8579C26.1897 35.543 25.2039 36 24.3698 36C23.3081 36 21.943 35.391 21.943 34.1727L22.8911 28.7671H18.7961L17.6967 34.8579C17.5831 35.543 16.5591 36 15.8009 36C14.7396 36 13.4126 35.391 13.4126 34.1727L14.3222 28.7671H11.3651C10.531 28.7671 10 28.0441 10 26.9781C10 25.9122 10.5688 25.0747 11.3651 25.0747H15.0427L15.8768 20.3925H12.9197C12.0475 20.3925 11.5168 19.707 11.5168 18.6031C11.5168 17.5372 12.0479 16.738 12.8819 16.738H16.5973L17.6212 11.0277C17.7729 10.3805 18.7206 10 19.6683 10C20.8058 10 21.9053 10.5328 21.9053 11.8652ZM19.517 25.0747H23.6116L24.4838 20.3925H20.3511L19.517 25.0747Z" fill="#E5AB3D"/>
</svg>
