<svg width="45" height="45" viewBox="0 0 45 45" fill="none" xmlns="http://www.w3.org/2000/svg">
<circle cx="22.5" cy="22.5" r="22.5" fill="#CED3FF" fill-opacity="0.2"/>
<path d="M13.6439 14.5959C15.2551 14.5959 16.5612 13.2898 16.5612 11.6786C16.5612 10.0674 15.2551 8.76123 13.6439 8.76123C12.0327 8.76123 10.7266 10.0674 10.7266 11.6786C10.7266 13.2898 12.0327 14.5959 13.6439 14.5959Z" fill="#31326C"/>
<path d="M19.316 16.8067V32.9921H24.3414V24.9881C24.3414 22.8761 24.7387 20.8307 27.3574 20.8307C29.94 20.8307 29.972 23.2454 29.972 25.1214V32.9934H35V24.1174C35 19.7574 34.0614 16.4067 28.9654 16.4067C26.5187 16.4067 24.8787 17.7494 24.208 19.0201H24.14V16.8067H19.316V16.8067ZM11.1267 16.8067H16.16V32.9921H11.1267V16.8067Z" fill="#31326C"/>
</svg>
