<svg width="45" height="45" viewBox="0 0 45 45" fill="none" xmlns="http://www.w3.org/2000/svg">
<circle cx="22.5" cy="22.5" r="22.5" fill="#CED3FF" fill-opacity="0.2"/>
<path d="M34.9294 18.0733C34.916 17.0634 34.7269 16.0636 34.3708 15.1186C34.0619 14.3215 33.5901 13.5975 32.9857 12.9931C32.3812 12.3886 31.6572 11.9168 30.8601 11.6079C29.9272 11.2578 28.9417 11.0684 27.9454 11.0479C26.6628 10.9906 26.2561 10.9746 23.0001 10.9746C19.7441 10.9746 19.3268 10.9746 18.0534 11.0479C17.0576 11.0685 16.0726 11.2579 15.1401 11.6079C14.3428 11.9166 13.6188 12.3883 13.0143 12.9928C12.4098 13.5973 11.9381 14.3214 11.6294 15.1186C11.2785 16.0508 11.0896 17.0361 11.0708 18.0319C11.0134 19.3159 10.9961 19.7226 10.9961 22.9786C10.9961 26.2346 10.9961 26.6506 11.0708 27.9253C11.0908 28.9226 11.2788 29.9066 11.6294 30.8413C11.9386 31.6383 12.4106 32.3621 13.0153 32.9663C13.6201 33.5706 14.3442 34.042 15.1414 34.3506C16.0713 34.7149 17.0566 34.9178 18.0548 34.9506C19.3388 35.0079 19.7454 35.0253 23.0014 35.0253C26.2574 35.0253 26.6748 35.0253 27.9481 34.9506C28.9443 34.931 29.9299 34.7421 30.8628 34.3919C31.6597 34.0827 32.3834 33.6108 32.9879 33.0064C33.5923 32.402 34.0642 31.6782 34.3734 30.8813C34.7241 29.9479 34.9121 28.9639 34.9321 27.9653C34.9894 26.6826 35.0068 26.2759 35.0068 23.0186C35.0041 19.7626 35.0041 19.3493 34.9294 18.0733V18.0733ZM22.9921 29.1359C19.5868 29.1359 16.8281 26.3773 16.8281 22.9719C16.8281 19.5666 19.5868 16.8079 22.9921 16.8079C24.6269 16.8079 26.1947 17.4574 27.3507 18.6133C28.5067 19.7693 29.1561 21.3371 29.1561 22.9719C29.1561 24.6067 28.5067 26.1746 27.3507 27.3306C26.1947 28.4865 24.6269 29.1359 22.9921 29.1359V29.1359ZM29.4014 18.0173C28.6054 18.0173 27.9641 17.3746 27.9641 16.5799C27.9641 16.3913 28.0013 16.2045 28.0735 16.0302C28.1457 15.8559 28.2515 15.6975 28.3849 15.5641C28.5183 15.4307 28.6767 15.3248 28.851 15.2526C29.0253 15.1804 29.2121 15.1433 29.4008 15.1433C29.5894 15.1433 29.7762 15.1804 29.9505 15.2526C30.1249 15.3248 30.2832 15.4307 30.4166 15.5641C30.55 15.6975 30.6559 15.8559 30.7281 16.0302C30.8003 16.2045 30.8374 16.3913 30.8374 16.5799C30.8374 17.3746 30.1948 18.0173 29.4014 18.0173Z" fill="#31326C"/>
<path d="M22.992 26.976C25.2034 26.976 26.996 25.1834 26.996 22.972C26.996 20.7607 25.2034 18.968 22.992 18.968C20.7807 18.968 18.988 20.7607 18.988 22.972C18.988 25.1834 20.7807 26.976 22.992 26.976Z" fill="#31326C"/>
</svg>
