<svg width="40" height="40" viewBox="0 0 40 40" fill="none" xmlns="http://www.w3.org/2000/svg">
<path d="M21.6667 13.3333C22.9927 13.3333 24.2645 13.8601 25.2022 14.7978C26.1399 15.7355 26.6667 17.0073 26.6667 18.3333C26.6667 18.7754 26.8423 19.1993 27.1548 19.5118C27.4674 19.8244 27.8913 20 28.3333 20C28.7754 20 29.1993 19.8244 29.5118 19.5118C29.8244 19.1993 30 18.7754 30 18.3333C30 16.1232 29.122 14.0036 27.5592 12.4408C25.9964 10.878 23.8768 10 21.6667 10C21.2246 10 20.8007 10.1756 20.4882 10.4882C20.1756 10.8007 20 11.2246 20 11.6667C20 12.1087 20.1756 12.5326 20.4882 12.8452C20.8007 13.1577 21.2246 13.3333 21.6667 13.3333V13.3333Z" fill="#E5AB3D"/>
<path d="M21.6666 6.66671C24.7608 6.66671 27.7282 7.89587 29.9162 10.0838C32.1041 12.2717 33.3333 15.2392 33.3333 18.3334C33.3333 18.7754 33.5088 19.1993 33.8214 19.5119C34.134 19.8244 34.5579 20 34.9999 20C35.4419 20 35.8659 19.8244 36.1784 19.5119C36.491 19.1993 36.6666 18.7754 36.6666 18.3334C36.6666 14.3551 35.0862 10.5398 32.2732 7.72677C29.4601 4.91373 25.6448 3.33337 21.6666 3.33337C21.2246 3.33337 20.8006 3.50897 20.4881 3.82153C20.1755 4.13409 19.9999 4.55801 19.9999 5.00004C19.9999 5.44207 20.1755 5.86599 20.4881 6.17855C20.8006 6.49111 21.2246 6.66671 21.6666 6.66671V6.66671ZM36.2499 26.5167C36.1582 26.2492 36 26.0093 35.7901 25.8198C35.5801 25.6303 35.3254 25.4973 35.0499 25.4334L25.0499 23.15C24.7785 23.0885 24.496 23.0959 24.2281 23.1716C23.9603 23.2473 23.7157 23.3889 23.5166 23.5834C23.2833 23.8 23.2666 23.8167 22.1833 25.8834C18.5886 24.227 15.7082 21.3348 14.0666 17.7334C16.1833 16.6667 16.1999 16.6667 16.4166 16.4167C16.6111 16.2176 16.7527 15.973 16.8284 15.7052C16.9041 15.4373 16.9115 15.1548 16.8499 14.8834L14.5666 5.00004C14.5027 4.72453 14.3697 4.46983 14.1802 4.25989C13.9906 4.04996 13.7508 3.89171 13.4833 3.80004C13.094 3.66102 12.6921 3.56054 12.2833 3.50004C11.862 3.40237 11.4321 3.34654 10.9999 3.33337C8.96659 3.33337 7.01655 4.14111 5.57877 5.57889C4.14099 7.01667 3.33325 8.96671 3.33325 11C3.34207 17.8046 6.04906 24.3278 10.8606 29.1394C15.6721 33.9509 22.1954 36.6579 28.9999 36.6667C30.0067 36.6667 31.0037 36.4684 31.9338 36.0831C32.864 35.6978 33.7092 35.1331 34.4211 34.4212C35.133 33.7093 35.6977 32.8641 36.083 31.9339C36.4683 31.0038 36.6666 30.0068 36.6666 29C36.6671 28.5758 36.6337 28.1523 36.5666 27.7334C36.4965 27.3194 36.3906 26.9123 36.2499 26.5167V26.5167ZM28.9999 33.3334C23.0781 33.329 17.4001 30.9746 13.2127 26.7872C9.02539 22.5999 6.671 16.9219 6.66659 11C6.67098 9.85212 7.12893 8.75247 7.94064 7.94076C8.75235 7.12905 9.852 6.6711 10.9999 6.66671H11.5499L13.3333 14.4L12.4333 14.8667C10.9999 15.6167 9.86659 16.2167 10.4666 17.5167C11.4436 20.2827 13.0245 22.7963 15.0945 24.8748C17.1644 26.9534 19.6714 28.5448 22.4333 29.5334C23.8333 30.1 24.3833 29.05 25.1333 27.6L25.6166 26.6834L33.3333 28.45V29C33.3289 30.148 32.8709 31.2476 32.0592 32.0593C31.2475 32.871 30.1478 33.329 28.9999 33.3334V33.3334Z" fill="#31326C"/>
</svg>
