<svg width="40" height="40" viewBox="0 0 40 40" fill="none" xmlns="http://www.w3.org/2000/svg">
<g clip-path="url(#clip0)">
<path d="M1.5 27.5542V1.9287L8.345 3.80073V30.1059L1.5 27.5542Z" stroke="#31326C" stroke-width="3"/>
<path fill-rule="evenodd" clip-rule="evenodd" d="M28.7652 20.0125C25.3627 20.0125 22.6077 23.0225 22.6077 26.7375C22.6077 27.6975 22.7977 28.605 23.1252 29.435L28.7852 39.815L34.3977 29.435C34.7327 28.605 34.9177 27.6975 34.9177 26.7375C34.9177 23.0225 32.1602 20.0125 28.7652 20.0125ZM28.8052 30.115C27.8106 30.1156 26.8565 29.7212 26.1528 29.0184C25.4491 28.3156 25.0533 27.362 25.0527 26.3675C25.052 25.3729 25.4465 24.4188 26.1492 23.7151C26.852 23.0113 27.8056 22.6156 28.8002 22.615C29.2926 22.6146 29.7803 22.7113 30.2354 22.8994C30.6905 23.0876 31.1041 23.3635 31.4525 23.7115C31.801 24.0595 32.0775 24.4727 32.2663 24.9276C32.455 25.3824 32.5523 25.87 32.5527 26.3625C32.553 26.8549 32.4563 27.3426 32.2682 27.7977C32.08 28.2528 31.8041 28.6664 31.4561 29.0148C31.1081 29.3633 30.6949 29.6398 30.24 29.8285C29.7852 30.0173 29.2976 30.1146 28.8052 30.115V30.115Z" fill="#E5AB3D"/>
<path d="M38.2368 29.9679L38.2853 29.8885L38.3237 29.8038C38.3854 29.6677 38.4441 29.5301 38.4999 29.3911V30.2114L38.1744 30.0697L38.2368 29.9679ZM38.4999 3.66809V22.053C37.0102 18.3569 33.3414 15.7487 29.0774 15.6268V1.90837L38.4999 3.66809Z" stroke="#31326C" stroke-width="3"/>
<path d="M19.2691 29.9374L14.0774 30.5707V3.90711L23.4224 2.21146V17.0735C20.3951 18.8205 18.3149 22.0121 18.3149 25.7298H19.8149L18.3149 25.7318C18.3168 27.1379 18.6194 28.5273 19.2024 29.8067L19.242 29.8936L19.2691 29.9374Z" stroke="#31326C" stroke-width="3"/>
</g>
<defs>
<clipPath id="clip0">
<rect width="40" height="40" fill="white"/>
</clipPath>
</defs>
</svg>
