<svg width="45" height="45" viewBox="0 0 45 45" fill="none" xmlns="http://www.w3.org/2000/svg">
<circle cx="22.5" cy="22.5" r="22.5" fill="#CED3FF" fill-opacity="0.2"/>
<path d="M18.92 31.9399C20.6091 31.9506 22.2836 31.6257 23.8462 30.9842C25.4088 30.3427 26.8285 29.3973 28.0229 28.2029C29.2174 27.0085 30.1627 25.5888 30.8043 24.0261C31.4458 22.4635 31.7706 20.7891 31.76 19.0999V18.5099C32.6356 17.8684 33.3935 17.0801 34 16.1799C33.1755 16.5405 32.3031 16.7797 31.41 16.8899C32.3569 16.3257 33.0674 15.4376 33.41 14.3899C32.5275 14.9194 31.5598 15.2916 30.55 15.4899C29.8699 14.7653 28.97 14.285 27.9895 14.1233C27.0089 13.9617 26.0024 14.1276 25.1257 14.5956C24.249 15.0636 23.551 15.8074 23.1396 16.712C22.7282 17.6167 22.6264 18.6316 22.85 19.5999C21.056 19.5119 19.3007 19.047 17.6984 18.2354C16.096 17.4239 14.6825 16.284 13.55 14.8899C12.9789 15.8811 12.8058 17.0523 13.0658 18.1663C13.3257 19.2803 13.9992 20.2539 14.95 20.8899C14.2486 20.8629 13.5635 20.671 12.95 20.3299V20.3799C12.9438 21.4158 13.2927 22.4225 13.9387 23.2322C14.5847 24.042 15.4887 24.6059 16.5 24.8299C15.8476 25.0054 15.1643 25.0327 14.5 24.9099C14.7928 25.7933 15.3517 26.5645 16.1 27.1177C16.8484 27.6709 17.7496 27.9791 18.68 27.9999C17.0892 29.2805 15.1121 29.9853 13.07 29.9999C12.712 29.9896 12.3547 29.9595 12 29.9099C14.067 31.2268 16.4692 31.9211 18.92 31.9099" fill="#31326C"/>
</svg>
