<svg width="45" height="45" viewBox="0 0 45 45" fill="none" xmlns="http://www.w3.org/2000/svg">
<circle cx="22.5" cy="22.5" r="22.5" fill="#E25757" fill-opacity="0.2"/>
<path d="M11.3334 28.6667C11.3334 28.8877 11.4212 29.0996 11.5775 29.2559C11.7337 29.4122 11.9457 29.5 12.1667 29.5H33.8334C34.0544 29.5 34.2664 29.4122 34.4226 29.2559C34.5789 29.0996 34.6667 28.8877 34.6667 28.6667C34.6667 28.4456 34.5789 28.2337 34.4226 28.0774C34.2664 27.9211 34.0544 27.8333 33.8334 27.8333H31.3334V21.6917H29.6667V27.8333H23.8334V21.6917H22.1667V27.8333H16.3334V21.6917H14.6667V27.8333H12.1667C11.9457 27.8333 11.7337 27.9211 11.5775 28.0774C11.4212 28.2337 11.3334 28.4456 11.3334 28.6667Z" fill="#E25757"/>
<path d="M35.5 31.1666H10.5C10.2789 31.1666 10.067 31.2544 9.9107 31.4107C9.75442 31.567 9.66663 31.7789 9.66663 32C9.66663 32.221 9.75442 32.4329 9.9107 32.5892C10.067 32.7455 10.2789 32.8333 10.5 32.8333H35.5C35.721 32.8333 35.9329 32.7455 36.0892 32.5892C36.2455 32.4329 36.3333 32.221 36.3333 32C36.3333 31.7789 36.2455 31.567 36.0892 31.4107C35.9329 31.2544 35.721 31.1666 35.5 31.1666Z" fill="#E25757"/>
<path d="M26.75 19.5C26.3649 19.505 25.9827 19.434 25.6252 19.291C25.2677 19.148 24.9419 18.9358 24.6666 18.6666H12.1666V20.3333H33.8333V19.5H26.75Z" fill="#E25757"/>
<path d="M24.2167 15.1166L24.7834 14.1416L23.5417 13.4333C23.4403 13.3748 23.3254 13.344 23.2084 13.344C23.0913 13.344 22.9764 13.3748 22.875 13.4333L17.275 16.65H19.95L23.2 14.7833L24.1167 15.3083C24.1584 15.2416 24.1834 15.175 24.2167 15.1166Z" fill="#E25757"/>
<path d="M26.375 11.375L23 9.43335L10.0833 16.8583C9.98371 16.9104 9.89569 16.9821 9.82453 17.0691C9.75337 17.1561 9.70054 17.2566 9.66923 17.3646C9.63792 17.4725 9.62876 17.5857 9.64231 17.6972C9.65586 17.8088 9.69184 17.9165 9.74809 18.0138C9.80434 18.1111 9.87968 18.196 9.9696 18.2634C10.0595 18.3309 10.1621 18.3794 10.2713 18.4062C10.3805 18.4329 10.4939 18.4373 10.6048 18.419C10.7157 18.4008 10.8218 18.3603 10.9166 18.3L23 11.3583L25.5416 12.8333L26.375 11.375Z" fill="#E25757"/>
<path d="M30.375 7.95005L25.6084 16.1667C25.4975 16.3295 25.4338 16.5198 25.4244 16.7165C25.4151 16.9133 25.4603 17.1088 25.5553 17.2813C25.6502 17.4539 25.791 17.5969 25.9622 17.6943C26.1334 17.7917 26.3282 17.8399 26.525 17.8334H36.0667C36.2636 17.8399 36.4584 17.7917 36.6295 17.6943C36.8007 17.5969 36.9415 17.4539 37.0365 17.2813C37.1314 17.1088 37.1767 16.9133 37.1673 16.7165C37.1579 16.5198 37.0943 16.3295 36.9834 16.1667L32.2167 7.95005C32.1227 7.78926 31.9882 7.65589 31.8267 7.56321C31.6651 7.47052 31.4821 7.42175 31.2959 7.42175C31.1096 7.42175 30.9266 7.47052 30.7651 7.56321C30.6035 7.65589 30.469 7.78926 30.375 7.95005Z" fill="#E25757"/>
</svg>
