<svg width="45" height="45" viewBox="0 0 45 45" fill="none" xmlns="http://www.w3.org/2000/svg">
<circle cx="22.5" cy="22.5" r="22.5" fill="#1DC002" fill-opacity="0.3"/>
<path d="M21 25.59L18.41 23L17 24.41L21 28.41L29 20.41L27.59 19L21 25.59Z" fill="#26BF0D"/>
<path d="M23 39L16.824 35.707C15.0633 34.7703 13.591 33.3719 12.5649 31.6617C11.5389 29.9516 10.9979 27.9943 11 26V13C11.0005 12.4697 11.2114 11.9613 11.5864 11.5864C11.9613 11.2114 12.4697 11.0005 13 11H33C33.5303 11.0005 34.0387 11.2114 34.4136 11.5864C34.7886 11.9613 34.9995 12.4697 35 13V26C35.0021 27.9943 34.4611 29.9516 33.4351 31.6617C32.409 33.3719 30.9367 34.7703 29.176 35.707L23 39ZM13 13V26C12.9983 27.6318 13.4411 29.2333 14.2808 30.6325C15.1204 32.0317 16.3253 33.1758 17.766 33.942L23 36.733L28.234 33.943C29.6749 33.1767 30.8798 32.0324 31.7195 30.633C32.5592 29.2336 33.0018 27.632 33 26V13H13Z" fill="#26BF0D"/>
</svg>
