<svg width="33" height="36" viewBox="0 0 33 36" fill="none" xmlns="http://www.w3.org/2000/svg">
<path d="M21.75 17C21.855 17 21.9575 17.005 22.06 17.0125L21.72 17.815L21.6 18.1475L21.58 18.21C21.45 18.63 21.3825 19.065 21.375 19.5H4.25C3.91848 19.5 3.60054 19.6317 3.36612 19.8661C3.1317 20.1005 3 20.4185 3 20.75V22C3 25.595 6.58 29.5 13 29.5C13.7725 29.5 14.5025 29.4425 15.1925 29.3375C14.8183 30.1399 14.6771 31.0313 14.785 31.91C14.192 31.9708 13.5962 32.0008 13 32C5.15 32 0.5 26.9275 0.5 22V20.75C0.5 19.7554 0.895088 18.8016 1.59835 18.0983C2.30161 17.3951 3.25544 17 4.25 17H21.75Z" fill="#31326C"/>
<path fill-rule="evenodd" clip-rule="evenodd" d="M31 21.9591H19C18.7348 21.9591 18.4804 22.0601 18.2929 22.24C18.1054 22.4198 18 22.6637 18 22.9181V34.0297L20 32.1116C20.375 31.7518 20.8836 31.5497 21.414 31.5496H31C31.2652 31.5496 31.5196 31.4485 31.7071 31.2687C31.8946 31.0888 32 30.8449 32 30.5905V22.9181C32 22.6637 31.8946 22.4198 31.7071 22.24C31.5196 22.0601 31.2652 21.9591 31 21.9591ZM19 21C18.4696 21 17.9609 21.2021 17.5858 21.5618C17.2107 21.9215 17 22.4094 17 22.9181V35.1872C17 35.2821 17.0294 35.3749 17.0844 35.4537C17.1394 35.5326 17.2176 35.5941 17.309 35.6303C17.4004 35.6665 17.501 35.676 17.598 35.6574C17.6951 35.6388 17.7841 35.593 17.854 35.5258L20.707 32.7896C20.8945 32.6097 21.1488 32.5087 21.414 32.5086H31C31.5304 32.5086 32.0391 32.3065 32.4142 31.9468C32.7893 31.5871 33 31.0992 33 30.5905V22.9181C33 22.4094 32.7893 21.9215 32.4142 21.5618C32.0391 21.2021 31.5304 21 31 21H19Z" fill="#E5AB3D" stroke="#E5AB3D" stroke-width="0.5"/>
<path d="M13 0.75C14.8234 0.75 16.572 1.47433 17.8614 2.76364C19.1507 4.05295 19.875 5.80164 19.875 7.625C19.875 9.44836 19.1507 11.197 17.8614 12.4864C16.572 13.7757 14.8234 14.5 13 14.5C11.1766 14.5 9.42795 13.7757 8.13864 12.4864C6.84933 11.197 6.125 9.44836 6.125 7.625C6.125 5.80164 6.84933 4.05295 8.13864 2.76364C9.42795 1.47433 11.1766 0.75 13 0.75ZM13 3.25C11.8397 3.25 10.7269 3.71094 9.90641 4.53141C9.08594 5.35188 8.625 6.46468 8.625 7.625C8.625 8.78532 9.08594 9.89812 9.90641 10.7186C10.7269 11.5391 11.8397 12 13 12C14.1603 12 15.2731 11.5391 16.0936 10.7186C16.9141 9.89812 17.375 8.78532 17.375 7.625C17.375 6.46468 16.9141 5.35188 16.0936 4.53141C15.2731 3.71094 14.1603 3.25 13 3.25Z" fill="#31326C"/>
</svg>
