<svg width="172" height="42" viewBox="0 0 172 42" fill="none" xmlns="http://www.w3.org/2000/svg">
<path d="M38.1153 0H2.88472C1.29128 0 0 1.29139 0 2.88495V38.1151C0 39.7086 1.29128 41 2.88472 41H13.619C13.444 40.6915 13.3582 40.2875 13.3486 39.7754C13.3232 37.8701 13.3009 35.9617 13.3582 34.0564C13.3836 33.2135 13.1133 32.9654 12.28 32.9845C10.0345 33.0354 7.78908 32.9622 5.54682 33.0195C4.57358 33.0449 4.42409 32.7109 4.59902 31.8299C5.26693 28.4328 7.90993 26.2794 11.593 26.2095C13.3391 26.1745 13.3391 26.1745 13.3423 24.4473C13.3423 22.1158 13.3041 19.7875 13.355 17.4592C13.4249 14.0971 15.8294 11.3426 18.959 10.8591C19.8528 10.7223 20.1486 10.9291 20.1422 11.8706C20.1008 16.4891 20.1231 21.1043 20.1231 25.7228C20.1231 30.2967 20.1263 34.8739 20.1199 39.4478C20.1199 40.1317 20.0404 40.6342 19.8432 40.9968H38.1153C39.7087 40.9968 41 39.7054 41 38.1119V2.88495C41 1.29139 39.7087 0 38.1153 0ZM25.4409 32.994C24.2133 33.0226 22.9824 32.9813 21.7547 33.0099C21.1631 33.0226 20.9214 32.8223 20.9341 32.2084C20.9628 30.513 20.966 28.8177 20.931 27.1255C20.9182 26.4735 21.1282 26.2126 21.7961 26.2317C22.9379 26.2635 24.0828 26.2604 25.2278 26.2222C27.7913 26.1331 29.6329 24.3296 29.6488 21.9313C29.6647 19.5744 27.7977 17.6564 25.2914 17.5228C24.1083 17.4592 22.9188 17.4846 21.7356 17.5164C21.125 17.5323 20.9119 17.3002 20.9373 16.7022C20.9723 15.8561 20.9469 15.0068 20.9469 14.1607C20.9469 13.3974 20.9882 12.634 20.9341 11.8738C20.8801 11.0849 21.09 10.7064 21.9742 10.7573C23.24 10.8305 24.5154 10.7446 25.7844 10.8114C31.8051 11.1327 36.5473 16.1487 36.4646 22.0808C36.3787 28.0479 31.5316 32.8541 25.4409 32.994Z" fill="white"/>
<path d="M72.4124 21.3665C72.4124 22.3049 72.2652 23.1983 71.9707 24.0469C71.6763 24.8955 71.2481 25.6049 70.6949 26.1706C70.3559 26.5208 69.9812 26.8485 69.5708 27.1449C69.1648 27.4412 68.7143 27.6971 68.2191 27.9036C67.724 28.1102 67.1887 28.2718 66.6132 28.3885C66.0333 28.5053 65.3865 28.5636 64.6683 28.5636H62.0319V35.1546H57V15H64.7753C65.9307 15 66.9299 15.1078 67.7686 15.3188C68.6072 15.5298 69.3656 15.8665 70.0481 16.329C70.802 16.8363 71.3819 17.5098 71.7968 18.3539C72.2072 19.1979 72.4124 20.2037 72.4124 21.3665ZM67.2467 21.4877C67.2467 20.9175 67.1128 20.4281 66.8452 20.0196C66.5775 19.611 66.2519 19.3281 65.8772 19.1755C65.3999 18.969 64.9448 18.8477 64.5121 18.8163C64.075 18.7849 63.4861 18.7669 62.7456 18.7669H62.0319V24.8057H62.3798C62.8527 24.8057 63.3032 24.8012 63.7226 24.7922C64.1419 24.7832 64.5121 24.7518 64.8244 24.6979C65.0921 24.653 65.3776 24.5632 65.6764 24.433C65.9753 24.3028 66.2073 24.1547 66.3679 23.993C66.7069 23.6608 66.9389 23.3106 67.0593 22.9514C67.1887 22.5877 67.2467 22.1028 67.2467 21.4877Z" fill="white"/>
<path d="M83.9085 34.2492C83.5583 34.528 83.2422 34.7836 82.9601 35.0066C82.6829 35.2297 82.3084 35.4574 81.8366 35.6804C81.3795 35.8942 80.932 36.0568 80.4943 36.173C80.0566 36.2891 79.4487 36.3403 78.6705 36.3403C77.2115 36.3403 76.0053 35.8756 75.0424 34.9416C74.0794 34.0076 73.5979 32.832 73.5979 31.4101C73.5979 30.2438 73.8411 29.3005 74.3323 28.5803C74.8235 27.8601 75.5238 27.2932 76.443 26.8703C77.372 26.4428 78.4808 26.1408 79.7697 25.9735C81.0585 25.8062 82.4494 25.6761 83.9328 25.5832V25.4995C83.9328 24.6306 83.5972 24.0312 82.9261 23.7013C82.2549 23.3714 81.253 23.2041 79.9107 23.2041C79.3028 23.2041 78.5976 23.3109 77.7854 23.52C76.9731 23.7291 76.1804 23.9987 75.412 24.3239H74.9694V20.5276C75.4801 20.3882 76.2971 20.2209 77.4352 20.0304C78.5684 19.8399 79.7113 19.7423 80.8688 19.7423C83.7042 19.7423 85.7663 20.193 87.0649 21.0945C88.3586 21.9959 89.0103 23.3714 89.0103 25.2207V35.922H83.9085V34.2492ZM83.9085 31.8097V28.5292C83.0379 28.6128 82.3327 28.6872 81.7977 28.7476C81.2579 28.808 80.7326 28.9288 80.2122 29.1054C79.7648 29.2541 79.4146 29.4817 79.1617 29.7838C78.9137 30.0858 78.7872 30.4901 78.7872 30.9966C78.7872 31.7354 78.9964 32.2419 79.4098 32.516C79.8232 32.7902 80.436 32.9296 81.2482 32.9296C81.6956 32.9296 82.1576 32.832 82.6245 32.6368C83.1011 32.437 83.5291 32.1629 83.9085 31.8097Z" fill="white"/>
<path d="M102.043 24.3279H101.68C101.513 24.2644 101.267 24.2145 100.95 24.1828C100.633 24.151 100.279 24.1329 99.8951 24.1329C99.4321 24.1329 98.9483 24.2055 98.4436 24.3506C97.9348 24.4957 97.4426 24.6681 96.9671 24.8722V35.1547H92.5669V19.7967H96.9671V21.9966C97.1674 21.797 97.4468 21.543 97.8013 21.2391C98.1558 20.9352 98.4812 20.6903 98.7773 20.5088C99.0943 20.3002 99.4655 20.1188 99.8909 19.9691C100.312 19.8194 100.713 19.7423 101.092 19.7423C101.234 19.7423 101.392 19.7468 101.572 19.7559C101.751 19.765 101.905 19.7786 102.051 19.7967V24.3279H102.043Z" fill="white"/>
<path d="M112.755 34.2492C112.431 34.528 112.139 34.7836 111.879 35.0066C111.623 35.2297 111.278 35.4574 110.842 35.6804C110.42 35.8942 110.007 36.0568 109.603 36.173C109.199 36.2891 108.638 36.3403 107.919 36.3403C106.573 36.3403 105.459 35.8756 104.57 34.9416C103.682 34.0076 103.237 32.832 103.237 31.4101C103.237 30.2438 103.462 29.3005 103.915 28.5803C104.368 27.8601 105.015 27.2932 105.863 26.8703C106.721 26.4428 107.744 26.1408 108.934 25.9735C110.124 25.8062 111.408 25.6761 112.777 25.5832V25.4995C112.777 24.6306 112.467 24.0312 111.848 23.7013C111.228 23.3714 110.303 23.2041 109.064 23.2041C108.503 23.2041 107.852 23.3109 107.102 23.52C106.353 23.7291 105.621 23.9987 104.912 24.3239H104.503V20.5276C104.974 20.3882 105.729 20.2209 106.779 20.0304C107.825 19.8399 108.88 19.7423 109.949 19.7423C112.566 19.7423 114.469 20.193 115.668 21.0945C116.862 21.9959 117.464 23.3714 117.464 25.2207V35.922H112.755V34.2492ZM112.755 31.8097V28.5292C111.951 28.6128 111.3 28.6872 110.806 28.7476C110.308 28.808 109.823 28.9288 109.343 29.1054C108.93 29.2541 108.606 29.4817 108.373 29.7838C108.144 30.0858 108.027 30.4901 108.027 30.9966C108.027 31.7354 108.22 32.2419 108.602 32.516C108.983 32.7902 109.549 32.9296 110.299 32.9296C110.712 32.9296 111.138 32.832 111.569 32.6368C112.014 32.437 112.404 32.1629 112.755 31.8097Z" fill="white"/>
<path d="M137.619 21.3665C137.619 22.3049 137.471 23.1983 137.177 24.0469C136.883 24.8955 136.454 25.6049 135.901 26.1706C135.562 26.5208 135.187 26.8485 134.777 27.1449C134.371 27.4412 133.921 27.6971 133.425 27.9036C132.93 28.1102 132.395 28.2718 131.82 28.3885C131.24 28.5053 130.593 28.5636 129.875 28.5636H127.238V35.1546H122.206V15H129.982C131.137 15 132.136 15.1078 132.975 15.3188C133.814 15.5298 134.572 15.8665 135.254 16.329C136.008 16.8363 136.588 17.5098 137.003 18.3539C137.413 19.1979 137.619 20.2037 137.619 21.3665ZM132.453 21.4877C132.453 20.9175 132.319 20.4281 132.051 20.0196C131.784 19.611 131.458 19.3281 131.083 19.1755C130.606 18.969 130.156 18.8477 129.718 18.8163C129.281 18.7849 128.692 18.7669 127.952 18.7669H127.238V24.8057H127.586C128.063 24.8057 128.51 24.8012 128.933 24.7922C129.353 24.7832 129.723 24.7518 130.035 24.6979C130.303 24.653 130.588 24.5632 130.887 24.433C131.186 24.3028 131.418 24.1547 131.579 23.993C131.918 23.6608 132.15 23.3106 132.27 22.9514C132.395 22.5877 132.453 22.1028 132.453 21.4877Z" fill="#E5AB3D"/>
<path d="M148.322 34.2492C147.998 34.528 147.707 34.7836 147.446 35.0066C147.19 35.2297 146.845 35.4574 146.409 35.6804C145.987 35.8942 145.574 36.0568 145.17 36.173C144.766 36.2891 144.205 36.3403 143.487 36.3403C142.14 36.3403 141.026 35.8756 140.138 34.9416C139.249 34.0076 138.804 32.832 138.804 31.4101C138.804 30.2438 139.029 29.3005 139.482 28.5803C139.936 27.8601 140.582 27.2932 141.43 26.8703C142.288 26.4428 143.312 26.1408 144.501 25.9735C145.691 25.8062 146.975 25.6761 148.344 25.5832V25.4995C148.344 24.6306 148.034 24.0312 147.415 23.7013C146.795 23.3714 145.87 23.2041 144.631 23.2041C144.07 23.2041 143.419 23.3109 142.67 23.52C141.92 23.7291 141.188 23.9987 140.479 24.3239H140.07V20.5276C140.542 20.3882 141.296 20.2209 142.346 20.0304C143.392 19.8399 144.447 19.7423 145.516 19.7423C148.133 19.7423 150.041 20.193 151.235 21.0945C152.429 21.9959 153.031 23.3714 153.031 25.2207V35.922H148.322V34.2492ZM148.322 31.8097V28.5292C147.518 28.6128 146.867 28.6872 146.373 28.7476C145.875 28.808 145.39 28.9288 144.91 29.1054C144.497 29.2541 144.173 29.4817 143.94 29.7838C143.711 30.0858 143.594 30.4901 143.594 30.9966C143.594 31.7354 143.787 32.2419 144.169 32.516C144.551 32.7902 145.116 32.9296 145.866 32.9296C146.279 32.9296 146.705 32.832 147.136 32.6368C147.576 32.437 147.967 32.1629 148.322 31.8097Z" fill="#E5AB3D"/>
<path d="M172 19.7423L164.059 41.0825H158.79L161.173 34.9774L155.402 19.7423H160.56L163.864 29.5317L166.958 19.7423H172Z" fill="#E5AB3D"/>
</svg>
