<svg width="159" height="85" viewBox="0 0 159 85" fill="none" xmlns="http://www.w3.org/2000/svg">
<path d="M62.6165 11.5124C43.1223 11.5609 24.2466 20.6023 12.1407 31.1679C2.28541 39.7759 -3.21826 52.6584 7.84101 62.6988C17.3782 71.3675 34.3262 74.5382 48.1441 76.3472C62.0077 78.1713 76.0319 78.234 89.8761 77.3502C113.284 75.8629 156.637 70.5223 155.977 47.236C155.585 33.8852 141.229 20.2894 126.422 13.4731C108.596 5.25669 87.1621 5.58253 67.9021 8.38962C48.342 11.2447 29.6279 17.4516 17.0952 29.1524C6.95864 38.6146 -1.28122 54.329 10.724 65.5122C21.3262 75.4023 41.8949 76.6577 56.955 76.0033C75.2087 75.2104 93.4238 73.668 110.868 69.8759C126.87 66.386 143.889 60.5211 152.091 49.1435C157.928 41.0684 157.598 31.9684 147.769 25.3664C137.686 18.5941 122.744 16.1658 110.035 14.5549C96.0583 12.7809 82.3365 12.4254 68.3932 13.3836C65.0678 13.6174 61.7277 13.8385 58.4039 14.0491C56.9149 14.138 57.4285 15.8556 58.902 15.7656C68.1826 15.1879 77.3784 14.2774 86.7381 14.5338C93.3094 14.7253 99.892 15.1858 106.441 15.8889C120.035 17.3432 135.585 19.7928 146.494 26.7891C159.608 35.1958 152.543 48.3018 142.598 55.585C129.008 65.5399 108.196 69.2944 89.7784 71.6735C72.3071 73.9239 52.8412 75.9226 35.0254 73.3064C26.3951 72.042 17.5826 69.2244 11.8729 63.8935C5.28657 57.7515 6.55956 49.5625 9.61082 42.8692C17.075 26.4562 36.9984 16.5352 58.4212 11.9039C79.0345 7.45815 102.911 5.95867 123.059 13.9958C133.095 18 140.958 24.3991 146.68 31.6791C151.232 37.4848 154.57 44.0763 153.41 50.7337C151.42 62.1012 135.156 67.8816 122.3 71.0196C107.268 74.6974 90.9097 76.0263 74.9809 76.1852C60.1144 76.3289 44.813 74.9591 30.5099 71.2596C22.5318 69.1916 14.5649 66.1212 9.06499 61.1206C2.90676 55.5234 2.94828 48.1655 6.10852 41.9001C10.3293 33.5195 19.8776 26.9655 29.4626 22.0356C38.9346 17.1558 50.6424 13.2802 62.5196 13.2551C63.9724 13.2336 64.115 11.5059 62.6165 11.5124Z" fill="#E5AB3D"/>
</svg>
