<svg width="233" height="130" viewBox="0 0 233 130" fill="none" xmlns="http://www.w3.org/2000/svg">
<path d="M154.342 22.8965C142.333 17.7422 127.785 18.2621 115.031 19.1514C97.6839 20.3538 80.2762 24.0263 64.1018 30.4239C50.7843 35.6876 36.6547 43.7762 29.7027 56.8546C22.7287 69.9836 26.6346 86.3411 37.1599 96.35C51.0856 109.592 73.0122 112.781 91.2947 114.891C115.174 117.638 138.704 117.388 162.335 112.633C175.366 110.013 188.15 106.019 200.273 100.561C210.549 95.9413 222.709 89.8728 226.512 78.4468C229.721 68.7765 223.04 59.1783 216.764 52.5303C207.581 42.8333 195.566 35.7649 183.52 30.2386C160.744 19.7942 132.935 14.6275 107.915 17.0289C91.0935 18.6465 74.3907 23.8737 58.8292 30.2905C38.9667 38.4858 -4.80066 60.8739 14.2614 88.4756C19.4117 95.9368 27.7534 101.065 35.5798 105.269C48.067 111.958 62.1538 115.453 76.1695 116.975C102.966 119.893 129.252 113.899 154.562 105.642C173.581 99.4438 193.763 92.5936 209.065 79.2014C221.244 68.5524 227.284 51.3026 217.303 37.1283C207.635 23.3856 187.892 18.3363 172.396 15.296C153.206 11.5422 133.62 11.4578 114.232 13.4977C88.8379 16.1643 63.4356 23.079 41.1165 35.6214C31.1769 41.2018 21.9735 48.1818 14.0794 56.4364C10.0359 60.6605 6.33097 65.4238 4.26175 70.9463C-4.13308 93.3774 29.9022 101.185 44.8013 104.032C73.1137 109.454 102.784 109.852 131.505 108.288C142.496 107.681 153.279 106.055 164.139 104.155C179.6 101.452 199.134 97.5638 208.874 83.9248C219.295 69.3454 208.595 49.4191 197.247 38.9861C182.814 25.7168 161.902 20.9853 143.049 18.5781C131.348 17.0853 119.514 16.7043 107.723 16.6256C106.056 16.6184 105.808 19.2124 107.493 19.2211C127.427 19.3364 147.628 20.4057 166.865 26.0071C186.649 31.7798 206.399 44.6775 210.069 66.4741C213.649 87.701 189.535 95.9236 173.296 99.682C161.36 102.435 148.982 104.428 136.75 105.364C117.377 106.843 -15.4414 110.248 8.7158 67.6364C12.9386 60.1978 19.7248 54.1449 26.272 48.8083C36.4698 40.5119 48.2065 34.2655 60.323 29.2816C84.9009 19.1865 111.983 14.9137 138.457 14.7303C163.841 14.5558 232.926 22.2898 218.018 62.7539C210.851 82.2213 185.745 91.743 167.976 98.2979C143.82 107.201 118.898 114.44 93.0018 115.043C67.4393 115.64 35.5114 109.213 17.9308 88.8708C7.30999 76.571 14.0075 62.9962 24.5428 53.4656C37.674 41.5842 54.9304 34.0709 71.4545 28.2836C88.5386 22.3177 106.016 18.6514 124.137 19.4137C154.43 20.7098 185.387 29.5788 209.124 48.992C219.061 57.1229 229.975 70.2737 221.325 83.0963C217.182 89.2428 209.905 92.8997 203.472 96.1572C197.241 99.3098 190.73 101.858 184.122 104.117C158.324 112.928 130.399 115.809 103.293 113.426C83.3802 111.68 61.5198 109.726 44.3153 98.6165C29.6018 89.1144 24.0901 69.8759 33.8924 54.9433C42.8034 41.3538 59.9653 34.1131 74.8357 29.3556C88.9467 24.8469 103.773 22.3679 118.543 21.5166C129.889 20.8712 142.822 20.7525 153.459 25.3289C154.979 26.0078 155.881 23.5595 154.342 22.8965Z" fill="#E5AB3D"/>
</svg>
