<svg width="153" height="153" viewBox="0 0 153 153" fill="none" xmlns="http://www.w3.org/2000/svg">
<circle cx="76.2298" cy="76.2298" r="76.2298" fill="#F7F6FB"/>
<path d="M87.99 37.2705H60.0069C57.6877 37.2705 55.4634 38.1918 53.8235 39.8318C52.1835 41.4717 51.2622 43.696 51.2622 46.0152V105.479C51.2622 107.799 52.1835 110.023 53.8235 111.663C55.4634 113.303 57.6877 114.224 60.0069 114.224H87.99C90.3093 114.224 92.5335 113.303 94.1735 111.663C95.8134 110.023 96.7348 107.799 96.7348 105.479V46.0152C96.7348 43.696 95.8134 41.4717 94.1735 39.8318C92.5335 38.1918 90.3093 37.2705 87.99 37.2705ZM73.9985 110.726C71.0952 110.726 68.7516 108.383 68.7516 105.479C68.7516 102.576 71.0952 100.232 73.9985 100.232C76.9017 100.232 79.2453 102.576 79.2453 105.479C79.2453 108.383 76.9017 110.726 73.9985 110.726ZM89.739 96.7346H58.258V47.7642H89.739V96.7346Z" fill="#424242"/>
<rect x="18.0579" y="55.7157" width="37.9613" height="71.795" rx="6.27207" transform="rotate(-32.3582 18.0579 55.7157)" stroke="#424242" stroke-width="0.964935" stroke-dasharray="1.93 4.82"/>
<rect x="-0.665771" y="0.149327" width="37.9613" height="71.795" rx="6.27207" transform="matrix(-0.844718 -0.535211 -0.535211 0.844718 129.56 55.2333)" stroke="#424242" stroke-width="0.964935" stroke-dasharray="1.93 4.82"/>
</svg>
