<svg width="45" height="45" viewBox="0 0 45 45" fill="none" xmlns="http://www.w3.org/2000/svg">
<circle cx="22.5" cy="22.5" r="22.5" fill="#CED3FF" fill-opacity="0.2"/>
<path d="M18.92 31.9401C20.6091 31.9507 22.2836 31.6258 23.8462 30.9843C25.4088 30.3428 26.8285 29.3974 28.0229 28.203C29.2174 27.0086 30.1627 25.5889 30.8043 24.0263C31.4458 22.4636 31.7706 20.7892 31.76 19.1001V18.5101C32.6356 17.8686 33.3935 17.0802 34 16.1801C33.1755 16.5407 32.3031 16.7798 31.41 16.8901C32.3569 16.3258 33.0674 15.4377 33.41 14.3901C32.5275 14.9195 31.5598 15.2917 30.55 15.4901C29.8699 14.7654 28.97 14.2851 27.9895 14.1235C27.0089 13.9618 26.0024 14.1278 25.1257 14.5957C24.249 15.0637 23.551 15.8075 23.1396 16.7121C22.7282 17.6168 22.6264 18.6318 22.85 19.6001C21.056 19.512 19.3007 19.0471 17.6984 18.2356C16.096 17.4241 14.6825 16.2841 13.55 14.8901C12.9789 15.8812 12.8058 17.0524 13.0658 18.1664C13.3257 19.2804 13.9992 20.254 14.95 20.8901C14.2486 20.863 13.5635 20.6712 12.95 20.3301V20.3801C12.9438 21.4159 13.2927 22.4226 13.9387 23.2323C14.5847 24.0421 15.4887 24.606 16.5 24.8301C15.8476 25.0055 15.1643 25.0329 14.5 24.9101C14.7928 25.7935 15.3517 26.5646 16.1 27.1179C16.8484 27.6711 17.7496 27.9792 18.68 28.0001C17.0892 29.2806 15.1121 29.9854 13.07 30.0001C12.712 29.9897 12.3547 29.9597 12 29.9101C14.067 31.227 16.4692 31.9213 18.92 31.9101" fill="#31326C"/>
</svg>
